HIERARCHY
ROOT Hips
{
  OFFSET 267.745 86.9975 -272.335
  CHANNELS 6 Xposition Yposition Zposition Zrotation Xrotation Yrotation
  JOINT LeftUpLeg
  {
    OFFSET 8.64259 1.95398 -2.38835
    CHANNELS 3 Zrotation Xrotation Yrotation
    JOINT LeftLeg
    {
      OFFSET 43.7702 0 0
      CHANNELS 3 Zrotation Xrotation Yrotation
      JOINT LeftFoot
      {
        OFFSET 40.6238 0 0
        CHANNELS 3 Zrotation Xrotation Yrotation
        JOINT LeftToeBase
        {
          OFFSET 12.7242 0 0
          CHANNELS 3 Zrotation Xrotation Yrotation
          End Site
          {
            OFFSET 0 0 0
          }
        }
      }
    }
  }
  JOINT RightUpLeg
  {
    OFFSET -8.2249 1.95398 -2.59336
    CHANNELS 3 Zrotation Xrotation Yrotation
    JOINT RightLeg
    {
      OFFSET 43.5653 0 0
      CHANNELS 3 Zrotation Xrotation Yrotation
      JOINT RightFoot
      {
        OFFSET 40.6238 0 0
        CHANNELS 3 Zrotation Xrotation Yrotation
        JOINT RightToeBase
        {
          OFFSET 12.7242 0 0
          CHANNELS 3 Zrotation Xrotation Yrotation
          End Site
          {
            OFFSET 0 0 0
          }
        }
      }
    }
  }
  JOINT Spine
  {
    OFFSET 0.165834 0.87714 6.61349
    CHANNELS 3 Zrotation Xrotation Yrotation
    JOINT Spine1
    {
      OFFSET 7.38963 1.71661e-005 0
      CHANNELS 3 Zrotation Xrotation Yrotation
      JOINT Spine2
      {
        OFFSET 11.9445 1.14441e-005 0
        CHANNELS 3 Zrotation Xrotation Yrotation
        JOINT Spine3
        {
          OFFSET 14.7254 4.19617e-005 0
          CHANNELS 3 Zrotation Xrotation Yrotation
          JOINT Spine4
          {
            OFFSET 10.9679 0 0
            CHANNELS 3 Zrotation Xrotation Yrotation
            JOINT RightShoulder
            {
              OFFSET 2.46616 -1.6653 3.69651
              CHANNELS 3 Zrotation Xrotation Yrotation
              JOINT RightArm
              {
                OFFSET 13.0012 0 0
                CHANNELS 3 Zrotation Xrotation Yrotation
                JOINT RightForeArm
                {
                  OFFSET 28.7848 1.52588e-005 0
                  CHANNELS 3 Zrotation Xrotation Yrotation
                  JOINT RightHand
                  {
                    OFFSET 26.5688 1.52588e-005 0
                    CHANNELS 3 Zrotation Xrotation Yrotation
                    End Site
                    {
                      OFFSET 0 0 0
                    }
                  }
                }
              }
            }
            JOINT LeftShoulder
            {
              OFFSET 2.38034 -1.29275 -3.7523
              CHANNELS 3 Zrotation Xrotation Yrotation
              JOINT LeftArm
              {
                OFFSET 16.3182 6.10352e-005 0
                CHANNELS 3 Zrotation Xrotation Yrotation
                JOINT LeftForeArm
                {
                  OFFSET 27.0901 0 0
                  CHANNELS 3 Zrotation Xrotation Yrotation
                  JOINT LeftHand
                  {
                    OFFSET 24.5451 1.52588e-005 0
                    CHANNELS 3 Zrotation Xrotation Yrotation
                    End Site
                    {
                      OFFSET 0 0 0
                    }
                  }
                }
              }
            }
            JOINT Neck
            {
              OFFSET 5.0226 -0.0266342 0
              CHANNELS 3 Zrotation Xrotation Yrotation
              JOINT Head
              {
                OFFSET 6.69364 2.86102e-005 0
                CHANNELS 3 Zrotation Xrotation Yrotation
                End Site
                {
                  OFFSET 0 0 0
                }
              }
            }
          }
        }
      }
    }
  }
}
MOTION
Frames:	6
Frame Time:	0.0416667
259.789 79.6181 -266.656 -101.897 -51.7836 -101.885 -104.891 0.787801 101.793 99.8429 32.6134 -101.447 45.6787 -37.3275 -10.9512 -29.072 -10.4748 25.2815 -173.719 57.4685 72.7669 -75.4098 -59.0698 6.37231 -8.4307 30.3136 34.4622 -44.5921 -4.54993 30.1524 -0.884668 3.38735 -89.6441 20.1006 -1.53585 1.06367 8.42968 -1.48761 1.12878 -14.1085 -1.78407 0.551425 5.90418 -1.78407 0.551433 113.096 -15.0836 -53.0449 72.3823 -34.9385 40.6241 105.421 23.9229 -102.976 -37.6926 10.5881 -36.0618 -61.7789 -19.503 133.383 107.482 29.9971 -165.71 -114.27 -45.4188 -24.2488 31.3166 -29.0431 -85.303 -66.9606 15.4944 -8.41915 -13.592 10.039 46.3486 
260.043 79.5494 -266.868 -101.964 -52.023 -101.895 -104.813 0.967989 101.514 100.621 32.4842 -102.136 45.7546 -37.6244 -10.6208 -29.2538 -10.4988 25.2732 -173.645 57.4409 72.6514 -76.0567 -58.6969 6.30395 -7.7742 30.1215 34.4707 -44.1647 -4.21653 29.7902 -0.908328 3.38775 -89.648 20.1015 -1.5842 1.06492 8.43075 -1.53581 1.13332 -14.1084 -1.83092 0.539188 5.90424 -1.83092 0.539189 113.129 -15.1822 -53.0183 72.4353 -34.9943 41.049 107.309 22.9515 -103.991 -37.1568 10.4116 -36.0252 -61.7315 -19.6685 133.386 107.265 30.4749 -165.495 -113.895 -45.7047 -23.6221 31.5022 -29.2189 -85.3314 -66.752 15.4952 -8.3975 -13.7484 9.98175 46.3577 
260.772 79.3554 -267.474 -102.184 -52.7367 -101.952 -104.628 1.4616 100.7 102.503 32.1449 -103.912 45.8153 -38.2853 -9.91899 -29.7687 -10.5506 25.227 -173.461 57.2988 72.298 -77.8986 -57.6597 6.10025 -5.84191 29.6025 34.4728 -43.0373 -3.291 28.7564 -0.979371 3.3888 -89.6582 20.1045 -1.72863 1.07478 8.43408 -1.67965 1.14981 -14.1082 -1.97171 0.505425 5.9044 -1.97169 0.505414 113.225 -15.4703 -52.9429 72.5881 -35.1368 42.2825 112.059 20.1219 -106.377 -35.7821 9.8629 -35.6363 -61.5953 -20.145 133.392 106.622 31.8279 -164.852 -112.771 -46.4704 -21.7969 32.0456 -29.7222 -85.3888 -66.1446 15.4958 -8.33069 -14.2043 9.81647 46.38 
261.911 79.0529 -268.421 -102.603 -53.948 -102.115 -104.45 2.17551 99.3838 104.715 31.7124 -106.28 45.5393 -38.9109 -9.36554 -30.5513 -10.5827 25.0935 -173.249 56.9197 71.8879 -80.8498 -55.9147 5.68164 -2.66406 28.8994 34.4382 -41.5697 -1.92681 27.1584 -1.1014 3.39009 -89.6714 20.1073 -1.97402 1.1012 8.43729 -1.92365 1.18702 -14.109 -2.21368 0.456798 5.90368 -2.21368 0.456787 113.381 -15.9398 -52.8259 72.8286 -35.3064 44.2682 117.909 15.7118 -108.881 -34.1481 8.99105 -34.4304 -61.3803 -20.8997 133.402 105.53 33.9128 -163.749 -110.867 -47.5163 -18.831 32.9377 -30.5131 -85.4092 -65.1638 15.4956 -8.21121 -14.9437 9.55428 46.4047 
263.388 78.6556 -269.645 -103.323 -55.7055 -102.495 -104.427 3.00466 97.6141 106.802 31.3048 -108.928 44.7291 -39.2555 -9.26716 -31.5128 -10.5401 24.8228 -173.17 56.1105 71.6883 -84.7992 -53.4009 4.93577 1.75713 28.2316 34.4058 -40.1979 -0.278632 25.1347 -1.28113 3.39414 -89.6827 20.1027 -2.33135 1.15566 8.43329 -2.27823 1.25717 -14.1179 -2.57083 0.401194 5.89479 -2.57085 0.401176 113.591 -16.5871 -52.6761 73.1331 -35.4204 46.9494 123.565 10.1886 -110.582 -32.9415 8.0158 -32.3633 -61.0965 -21.8988 133.413 103.919 36.5674 -162.115 -108.164 -48.5929 -14.7801 34.1789 -31.5466 -85.3064 -63.8318 15.4995 -8.02632 -15.9562 9.20761 46.4178 
265.134 78.1727 -271.086 -104.496 -58.0547 -103.243 -104.721 3.84679 95.4516 108.735 30.9813 -111.769 43.3978 -39.2752 -9.61468 -32.5448 -10.3729 24.3801 -173.476 54.6454 72.1431 -89.6072 -49.9966 3.70105 7.42347 27.951 34.5529 -39.3389 1.56213 22.8195 -1.52595 3.40616 -89.6887 20.0849 -2.81318 1.24761 8.41625 -2.75556 1.37028 -14.1427 -3.05797 0.343755 5.86996 -3.05798 0.34376 113.854 -17.4115 -52.5032 73.4542 -35.3818 50.2503 128.65 3.98333 -111.099 -32.715 7.20024 -29.8595 -60.7535 -23.1093 133.427 101.679 39.6156 -159.838 -104.722 -49.4405 -9.75372 35.7727 -32.7693 -84.9874 -62.1701 15.5138 -7.75979 -17.2343 8.79029 46.4041 
